<svg id="my-svg" width="100%" xmlns="http://www.w3.org/2000/svg" xmlns:xlink="http://www.w3.org/1999/xlink" class="classDiagram" style="max-width: 617.322px; background-color: white;" viewBox="0 0 617.322265625 986" role="graphics-document document" aria-roledescription="class"><style>#my-svg{font-family:"trebuchet ms",verdana,arial,sans-serif;font-size:16px;fill:#333;}@keyframes edge-animation-frame{from{stroke-dashoffset:0;}}@keyframes dash{to{stroke-dashoffset:0;}}#my-svg .edge-animation-slow{stroke-dasharray:9,5!important;stroke-dashoffset:900;animation:dash 50s linear infinite;stroke-linecap:round;}#my-svg .edge-animation-fast{stroke-dasharray:9,5!important;stroke-dashoffset:900;animation:dash 20s linear infinite;stroke-linecap:round;}#my-svg .error-icon{fill:#552222;}#my-svg .error-text{fill:#552222;stroke:#552222;}#my-svg .edge-thickness-normal{stroke-width:1px;}#my-svg .edge-thickness-thick{stroke-width:3.5px;}#my-svg .edge-pattern-solid{stroke-dasharray:0;}#my-svg .edge-thickness-invisible{stroke-width:0;fill:none;}#my-svg .edge-pattern-dashed{stroke-dasharray:3;}#my-svg .edge-pattern-dotted{stroke-dasharray:2;}#my-svg .marker{fill:#333333;stroke:#333333;}#my-svg .marker.cross{stroke:#333333;}#my-svg svg{font-family:"trebuchet ms",verdana,arial,sans-serif;font-size:16px;}#my-svg p{margin:0;}#my-svg g.classGroup text{fill:#9370DB;stroke:none;font-family:"trebuchet ms",verdana,arial,sans-serif;font-size:10px;}#my-svg g.classGroup text .title{font-weight:bolder;}#my-svg .cluster-label text{fill:#333;}#my-svg .cluster-label span{color:#333;}#my-svg .cluster-label span p{background-color:transparent;}#my-svg .cluster rect{fill:#ffffde;stroke:#aaaa33;stroke-width:1px;}#my-svg .cluster text{fill:#333;}#my-svg .cluster span{color:#333;}#my-svg .nodeLabel,#my-svg .edgeLabel{color:#131300;}#my-svg .edgeLabel .label rect{fill:#ECECFF;}#my-svg .label text{fill:#131300;}#my-svg .labelBkg{background:#ECECFF;}#my-svg .edgeLabel .label span{background:#ECECFF;}#my-svg .classTitle{font-weight:bolder;}#my-svg .node rect,#my-svg .node circle,#my-svg .node ellipse,#my-svg .node polygon,#my-svg .node path{fill:#ECECFF;stroke:#9370DB;stroke-width:1px;}#my-svg .divider{stroke:#9370DB;stroke-width:1;}#my-svg g.clickable{cursor:pointer;}#my-svg g.classGroup rect{fill:#ECECFF;stroke:#9370DB;}#my-svg g.classGroup line{stroke:#9370DB;stroke-width:1;}#my-svg .classLabel .box{stroke:none;stroke-width:0;fill:#ECECFF;opacity:0.5;}#my-svg .classLabel .label{fill:#9370DB;font-size:10px;}#my-svg .relation{stroke:#333333;stroke-width:1;fill:none;}#my-svg .dashed-line{stroke-dasharray:3;}#my-svg .dotted-line{stroke-dasharray:1 2;}#my-svg #compositionStart,#my-svg .composition{fill:#333333!important;stroke:#333333!important;stroke-width:1;}#my-svg #compositionEnd,#my-svg .composition{fill:#333333!important;stroke:#333333!important;stroke-width:1;}#my-svg #dependencyStart,#my-svg .dependency{fill:#333333!important;stroke:#333333!important;stroke-width:1;}#my-svg #dependencyStart,#my-svg .dependency{fill:#333333!important;stroke:#333333!important;stroke-width:1;}#my-svg #extensionStart,#my-svg .extension{fill:transparent!important;stroke:#333333!important;stroke-width:1;}#my-svg #extensionEnd,#my-svg .extension{fill:transparent!important;stroke:#333333!important;stroke-width:1;}#my-svg #aggregationStart,#my-svg .aggregation{fill:transparent!important;stroke:#333333!important;stroke-width:1;}#my-svg #aggregationEnd,#my-svg .aggregation{fill:transparent!important;stroke:#333333!important;stroke-width:1;}#my-svg #lollipopStart,#my-svg .lollipop{fill:#ECECFF!important;stroke:#333333!important;stroke-width:1;}#my-svg #lollipopEnd,#my-svg .lollipop{fill:#ECECFF!important;stroke:#333333!important;stroke-width:1;}#my-svg .edgeTerminals{font-size:11px;line-height:initial;}#my-svg .classTitleText{text-anchor:middle;font-size:18px;fill:#333;}#my-svg .label-icon{display:inline-block;height:1em;overflow:visible;vertical-align:-0.125em;}#my-svg .node .label-icon path{fill:currentColor;stroke:revert;stroke-width:revert;}#my-svg :root{--mermaid-font-family:"trebuchet ms",verdana,arial,sans-serif;}</style><g><defs><marker id="my-svg_class-aggregationStart" class="marker aggregation class" refX="18" refY="7" markerWidth="190" markerHeight="240" orient="auto"><path d="M 18,7 L9,13 L1,7 L9,1 Z"/></marker></defs><defs><marker id="my-svg_class-aggregationEnd" class="marker aggregation class" refX="1" refY="7" markerWidth="20" markerHeight="28" orient="auto"><path d="M 18,7 L9,13 L1,7 L9,1 Z"/></marker></defs><defs><marker id="my-svg_class-extensionStart" class="marker extension class" refX="18" refY="7" markerWidth="190" markerHeight="240" orient="auto"><path d="M 1,7 L18,13 V 1 Z"/></marker></defs><defs><marker id="my-svg_class-extensionEnd" class="marker extension class" refX="1" refY="7" markerWidth="20" markerHeight="28" orient="auto"><path d="M 1,1 V 13 L18,7 Z"/></marker></defs><defs><marker id="my-svg_class-compositionStart" class="marker composition class" refX="18" refY="7" markerWidth="190" markerHeight="240" orient="auto"><path d="M 18,7 L9,13 L1,7 L9,1 Z"/></marker></defs><defs><marker id="my-svg_class-compositionEnd" class="marker composition class" refX="1" refY="7" markerWidth="20" markerHeight="28" orient="auto"><path d="M 18,7 L9,13 L1,7 L9,1 Z"/></marker></defs><defs><marker id="my-svg_class-dependencyStart" class="marker dependency class" refX="6" refY="7" markerWidth="190" markerHeight="240" orient="auto"><path d="M 5,7 L9,13 L1,7 L9,1 Z"/></marker></defs><defs><marker id="my-svg_class-dependencyEnd" class="marker dependency class" refX="13" refY="7" markerWidth="20" markerHeight="28" orient="auto"><path d="M 18,7 L9,13 L14,7 L9,1 Z"/></marker></defs><defs><marker id="my-svg_class-lollipopStart" class="marker lollipop class" refX="13" refY="7" markerWidth="190" markerHeight="240" orient="auto"><circle fill="transparent" cx="7" cy="7" r="6"/></marker></defs><defs><marker id="my-svg_class-lollipopEnd" class="marker lollipop class" refX="1" refY="7" markerWidth="190" markerHeight="240" orient="auto"><circle fill="transparent" cx="7" cy="7" r="6"/></marker></defs><g class="root"><g class="clusters"/><g class="edgePaths"><path d="M273.398,540.22L292.238,555.017C311.078,569.814,348.758,599.407,377.321,629.526C405.883,659.645,425.329,690.289,435.052,705.612L444.775,720.934" id="id_Owner_Pet_1" class="edge-thickness-normal edge-pattern-solid relation" style=";;;" data-edge="true" data-et="edge" data-id="id_Owner_Pet_1" data-points="W3sieCI6MjczLjM5ODQzNzUsInkiOjU0MC4yMjA0Mjk1MDkyOTEyfSx7IngiOjM4Ni40Mzc1LCJ5Ijo2Mjl9LHsieCI6NDQ3Ljk5MDEzMzE3NjgxMzQ2LCJ5Ijo3MjZ9XQ==" marker-end="url(#my-svg_class-dependencyEnd)"/><path d="M140.699,592L140.699,598.167C140.699,604.333,140.699,616.667,143.193,628.096C145.687,639.526,150.675,650.052,153.169,655.315L155.663,660.578" id="id_Owner_Task_2" class="edge-thickness-normal edge-pattern-solid relation" style=";;;" data-edge="true" data-et="edge" data-id="id_Owner_Task_2" data-points="W3sieCI6MTQwLjY5OTIxODc1LCJ5Ijo1OTJ9LHsieCI6MTQwLjY5OTIxODc1LCJ5Ijo2Mjl9LHsieCI6MTU4LjIzMjA1NzU2MTUyODUsInkiOjY2Nn1d" marker-end="url(#my-svg_class-dependencyEnd)"/><path d="M354.625,206L354.625,212.167C354.625,218.333,354.625,230.667,354.625,269C354.625,307.333,354.625,371.667,354.625,436C354.625,500.333,354.625,564.667,351.248,602.156C347.87,639.645,341.116,650.289,337.738,655.612L334.361,660.934" id="id_Scheduler_Task_3" class="edge-thickness-normal edge-pattern-dashed relation" style=";;;" data-edge="true" data-et="edge" data-id="id_Scheduler_Task_3" data-points="W3sieCI6MzU0LjYyNSwieSI6MjA2fSx7IngiOjM1NC42MjUsInkiOjI0M30seyJ4IjozNTQuNjI1LCJ5Ijo0MzZ9LHsieCI6MzU0LjYyNSwieSI6NjI5fSx7IngiOjMzMS4xNDYxNjA1NDA4MDMxLCJ5Ijo2NjZ9XQ==" marker-end="url(#my-svg_class-dependencyEnd)"/><path d="M198.9,206L189.2,212.167C179.499,218.333,160.099,230.667,150.399,242C140.699,253.333,140.699,263.667,140.699,268.833L140.699,274" id="id_Scheduler_Owner_4" class="edge-thickness-normal edge-pattern-dashed relation" style=";;;" data-edge="true" data-et="edge" data-id="id_Scheduler_Owner_4" data-points="W3sieCI6MTk4Ljg5OTYxNTExOTQ4NTMsInkiOjIwNn0seyJ4IjoxNDAuNjk5MjE4NzUsInkiOjI0M30seyJ4IjoxNDAuNjk5MjE4NzUsInkiOjI4MH1d" marker-end="url(#my-svg_class-dependencyEnd)"/><path d="M478.513,206L486.23,212.167C493.947,218.333,509.381,230.667,517.098,269C524.814,307.333,524.814,371.667,524.814,436C524.814,500.333,524.814,564.667,523.564,612.003C522.314,659.34,519.813,689.68,518.563,704.85L517.313,720.02" id="id_Scheduler_Pet_5" class="edge-thickness-normal edge-pattern-dashed relation" style=";;;" data-edge="true" data-et="edge" data-id="id_Scheduler_Pet_5" data-points="W3sieCI6NDc4LjUxMjkxMDczMDY5ODU0LCJ5IjoyMDZ9LHsieCI6NTI0LjgxNDQ1MzEyNSwieSI6MjQzfSx7IngiOjUyNC44MTQ0NTMxMjUsInkiOjQzNn0seyJ4Ijo1MjQuODE0NDUzMTI1LCJ5Ijo2Mjl9LHsieCI6NTE2LjgyMDEyMDIyMzQ0NTUsInkiOjcyNn1d" marker-end="url(#my-svg_class-dependencyEnd)"/></g><g class="edgeLabels"><g class="edgeLabel" transform="translate(375.09178, 620.0892)"><g class="label" data-id="id_Owner_Pet_1" transform="translate(-11.8125, -12)"><foreignObject width="23.625" height="24"><div xmlns="http://www.w3.org/1999/xhtml" class="labelBkg" style="display: table-cell; white-space: nowrap; line-height: 1.5; max-width: 200px; text-align: center;"><span class="edgeLabel"><p>has</p></span></div></foreignObject></g></g><g class="edgeLabel" transform="translate(140.69921875, 629)"><g class="label" data-id="id_Owner_Task_2" transform="translate(-11.8125, -12)"><foreignObject width="23.625" height="24"><div xmlns="http://www.w3.org/1999/xhtml" class="labelBkg" style="display: table-cell; white-space: nowrap; line-height: 1.5; max-width: 200px; text-align: center;"><span class="edgeLabel"><p>has</p></span></div></foreignObject></g></g><g class="edgeLabel" transform="translate(354.625, 436)"><g class="label" data-id="id_Scheduler_Task_3" transform="translate(-15.2109375, -12)"><foreignObject width="30.421875" height="24"><div xmlns="http://www.w3.org/1999/xhtml" class="labelBkg" style="display: table-cell; white-space: nowrap; line-height: 1.5; max-width: 200px; text-align: center;"><span class="edgeLabel"><p>uses</p></span></div></foreignObject></g></g><g class="edgeLabel" transform="translate(140.69921875, 243)"><g class="label" data-id="id_Scheduler_Owner_4" transform="translate(-15.2109375, -12)"><foreignObject width="30.421875" height="24"><div xmlns="http://www.w3.org/1999/xhtml" class="labelBkg" style="display: table-cell; white-space: nowrap; line-height: 1.5; max-width: 200px; text-align: center;"><span class="edgeLabel"><p>uses</p></span></div></foreignObject></g></g><g class="edgeLabel" transform="translate(524.814453125, 436)"><g class="label" data-id="id_Scheduler_Pet_5" transform="translate(-15.2109375, -12)"><foreignObject width="30.421875" height="24"><div xmlns="http://www.w3.org/1999/xhtml" class="labelBkg" style="display: table-cell; white-space: nowrap; line-height: 1.5; max-width: 200px; text-align: center;"><span class="edgeLabel"><p>uses</p></span></div></foreignObject></g></g><g class="edgeTerminals" transform="translate(277.8962425793415, 562.8261771775896)"><g class="inner" transform="translate(-2.890625, -8.25)"><foreignObject width="5.78125" height="16.5" style="width: 9px; height: 12px;"><div xmlns="http://www.w3.org/1999/xhtml" style="display: table-cell; white-space: nowrap; line-height: 1.5;"><span class="edgeLabel"><p>1</p></span></div></foreignObject></g></g><g class="edgeTerminals" transform="translate(125.699219375, 609.5000005357143)"><g class="inner" transform="translate(-2.890625, -8.25)"><foreignObject width="5.78125" height="16.5" style="width: 9px; height: 12px;"><div xmlns="http://www.w3.org/1999/xhtml" style="display: table-cell; white-space: nowrap; line-height: 1.5;"><span class="edgeLabel"><p>1</p></span></div></foreignObject></g></g><g class="edgeTerminals" transform="translate(446.27899776014056, 698.1869909443453)"><g class="inner" transform="translate(-2.0234375, -8.25)"/><foreignObject width="4.046875" height="16.5" style="width: 9px; height: 12px;"><div xmlns="http://www.w3.org/1999/xhtml" style="display: table-cell; white-space: nowrap; line-height: 1.5;"><span class="edgeLabel"><p>*</p></span></div></foreignObject></g><g class="edgeTerminals" transform="translate(159.29341169917006, 638.7624181215441)"><g class="inner" transform="translate(-2.0234375, -8.25)"/><foreignObject width="4.046875" height="16.5" style="width: 9px; height: 12px;"><div xmlns="http://www.w3.org/1999/xhtml" style="display: table-cell; white-space: nowrap; line-height: 1.5;"><span class="edgeLabel"><p>*</p></span></div></foreignObject></g></g><g class="nodes"><g class="node default" id="classId-Owner-0" transform="translate(140.69921875, 436)"><g class="basic label-container"><path d="M-132.69921875 -156 L132.69921875 -156 L132.69921875 156 L-132.69921875 156" stroke="none" stroke-width="0" fill="#ECECFF" style=""/><path d="M-132.69921875 -156 C-72.50641129813272 -156, -12.313603846265437 -156, 132.69921875 -156 M-132.69921875 -156 C-30.03325485924799 -156, 72.63270903150402 -156, 132.69921875 -156 M132.69921875 -156 C132.69921875 -47.442921411860596, 132.69921875 61.11415717627881, 132.69921875 156 M132.69921875 -156 C132.69921875 -67.33186911276538, 132.69921875 21.33626177446925, 132.69921875 156 M132.69921875 156 C36.357283750784234 156, -59.98465124843153 156, -132.69921875 156 M132.69921875 156 C57.602423379289874 156, -17.494371991420252 156, -132.69921875 156 M-132.69921875 156 C-132.69921875 49.220083775461276, -132.69921875 -57.55983244907745, -132.69921875 -156 M-132.69921875 156 C-132.69921875 51.21649728028076, -132.69921875 -53.567005439438475, -132.69921875 -156" stroke="#9370DB" stroke-width="1.3" fill="none" stroke-dasharray="0 0" style=""/></g><g class="annotation-group text" transform="translate(0, -132)"/><g class="label-group text" transform="translate(-24.6328125, -132)"><g class="label" style="font-weight: bolder" transform="translate(0,-12)"><foreignObject width="49.265625" height="24"><div xmlns="http://www.w3.org/1999/xhtml" style="display: table-cell; white-space: nowrap; line-height: 1.5; max-width: 94px; text-align: center;"><span class="nodeLabel markdown-node-label" style=""><p>Owner</p></span></div></foreignObject></g></g><g class="members-group text" transform="translate(-120.69921875, -84)"><g class="label" style="" transform="translate(0,-12)"><foreignObject width="77.28125" height="24"><div xmlns="http://www.w3.org/1999/xhtml" style="display: table-cell; white-space: nowrap; line-height: 1.5; max-width: 123px; text-align: center;"><span class="nodeLabel markdown-node-label" style=""><p>+name: str</p></span></div></foreignObject></g><g class="label" style="" transform="translate(0,12)"><foreignObject width="158.875" height="24"><div xmlns="http://www.w3.org/1999/xhtml" style="display: table-cell; white-space: nowrap; line-height: 1.5; max-width: 194px; text-align: center;"><span class="nodeLabel markdown-node-label" style=""><p>+available_start: time</p></span></div></foreignObject></g><g class="label" style="" transform="translate(0,36)"><foreignObject width="151.46875" height="24"><div xmlns="http://www.w3.org/1999/xhtml" style="display: table-cell; white-space: nowrap; line-height: 1.5; max-width: 189px; text-align: center;"><span class="nodeLabel markdown-node-label" style=""><p>+available_end: time</p></span></div></foreignObject></g><g class="label" style="" transform="translate(0,60)"><foreignObject width="123.4375" height="24"><div xmlns="http://www.w3.org/1999/xhtml" style="display: table-cell; white-space: nowrap; line-height: 1.5; max-width: 162px; text-align: center;"><span class="nodeLabel markdown-node-label" style=""><p>+preferences: str</p></span></div></foreignObject></g><g class="label" style="" transform="translate(0,84)"><foreignObject width="71.65625" height="24"><div xmlns="http://www.w3.org/1999/xhtml" style="display: table-cell; white-space: nowrap; line-height: 1.5; max-width: 117px; text-align: center;"><span class="nodeLabel markdown-node-label" style=""><p>+pets: list</p></span></div></foreignObject></g><g class="label" style="" transform="translate(0,108)"><foreignObject width="76.96875" height="24"><div xmlns="http://www.w3.org/1999/xhtml" style="display: table-cell; white-space: nowrap; line-height: 1.5; max-width: 124px; text-align: center;"><span class="nodeLabel markdown-node-label" style=""><p>+tasks: list</p></span></div></foreignObject></g></g><g class="methods-group text" transform="translate(-120.69921875, 84)"><g class="label" style="" transform="translate(0,-12)"><foreignObject width="216.765625" height="24"><div xmlns="http://www.w3.org/1999/xhtml" style="display: table-cell; white-space: nowrap; line-height: 1.5; max-width: 247px; text-align: center;"><span class="nodeLabel markdown-node-label" style=""><p>+get_available_minutes() : int</p></span></div></foreignObject></g><g class="label" style="" transform="translate(0,12)"><foreignObject width="206.640625" height="24"><div xmlns="http://www.w3.org/1999/xhtml" style="display: table-cell; white-space: nowrap; line-height: 1.5; max-width: 239px; text-align: center;"><span class="nodeLabel markdown-node-label" style=""><p>+is_available(at_time) : bool</p></span></div></foreignObject></g><g class="label" style="" transform="translate(0,36)"><foreignObject width="173.71875" height="24"><div xmlns="http://www.w3.org/1999/xhtml" style="display: table-cell; white-space: nowrap; line-height: 1.5; max-width: 207px; text-align: center;"><span class="nodeLabel markdown-node-label" style=""><p>+get_constraints() : dict</p></span></div></foreignObject></g></g><g class="divider" style=""><path d="M-132.69921875 -108 C-66.43728331919418 -108, -0.1753478883883588 -108, 132.69921875 -108 M-132.69921875 -108 C-38.71988332235175 -108, 55.2594521052965 -108, 132.69921875 -108" stroke="#9370DB" stroke-width="1.3" fill="none" stroke-dasharray="0 0" style=""/></g><g class="divider" style=""><path d="M-132.69921875 60 C-68.40360480123141 60, -4.1079908524628195 60, 132.69921875 60 M-132.69921875 60 C-76.91820248070275 60, -21.137186211405478 60, 132.69921875 60" stroke="#9370DB" stroke-width="1.3" fill="none" stroke-dasharray="0 0" style=""/></g></g><g class="node default" id="classId-Pet-1" transform="translate(508.908203125, 822)"><g class="basic label-container"><path d="M-100.4140625 -96 L100.4140625 -96 L100.4140625 96 L-100.4140625 96" stroke="none" stroke-width="0" fill="#ECECFF" style=""/><path d="M-100.4140625 -96 C-29.171242108946785 -96, 42.07157828210643 -96, 100.4140625 -96 M-100.4140625 -96 C-24.465207652739565 -96, 51.48364719452087 -96, 100.4140625 -96 M100.4140625 -96 C100.4140625 -52.5333335769569, 100.4140625 -9.066667153913798, 100.4140625 96 M100.4140625 -96 C100.4140625 -37.04342235220639, 100.4140625 21.913155295587217, 100.4140625 96 M100.4140625 96 C57.180854732009934 96, 13.947646964019867 96, -100.4140625 96 M100.4140625 96 C25.563185041804516 96, -49.28769241639097 96, -100.4140625 96 M-100.4140625 96 C-100.4140625 36.391507340109115, -100.4140625 -23.21698531978177, -100.4140625 -96 M-100.4140625 96 C-100.4140625 19.417604513624823, -100.4140625 -57.16479097275035, -100.4140625 -96" stroke="#9370DB" stroke-width="1.3" fill="none" stroke-dasharray="0 0" style=""/></g><g class="annotation-group text" transform="translate(0, -72)"/><g class="label-group text" transform="translate(-12.09375, -72)"><g class="label" style="font-weight: bolder" transform="translate(0,-12)"><foreignObject width="24.1875" height="24"><div xmlns="http://www.w3.org/1999/xhtml" style="display: table-cell; white-space: nowrap; line-height: 1.5; max-width: 70px; text-align: center;"><span class="nodeLabel markdown-node-label" style=""><p>Pet</p></span></div></foreignObject></g></g><g class="members-group text" transform="translate(-88.4140625, -24)"><g class="label" style="" transform="translate(0,-12)"><foreignObject width="77.28125" height="24"><div xmlns="http://www.w3.org/1999/xhtml" style="display: table-cell; white-space: nowrap; line-height: 1.5; max-width: 123px; text-align: center;"><span class="nodeLabel markdown-node-label" style=""><p>+name: str</p></span></div></foreignObject></g><g class="label" style="" transform="translate(0,12)"><foreignObject width="89.9375" height="24"><div xmlns="http://www.w3.org/1999/xhtml" style="display: table-cell; white-space: nowrap; line-height: 1.5; max-width: 134px; text-align: center;"><span class="nodeLabel markdown-node-label" style=""><p>+species: str</p></span></div></foreignObject></g></g><g class="methods-group text" transform="translate(-88.4140625, 48)"><g class="label" style="" transform="translate(0,-12)"><foreignObject width="74.78125" height="24"><div xmlns="http://www.w3.org/1999/xhtml" style="display: table-cell; white-space: nowrap; line-height: 1.5; max-width: 151px; text-align: center;"><span class="nodeLabel markdown-node-label" style=""><p>+<strong>str</strong>() : str</p></span></div></foreignObject></g><g class="label" style="" transform="translate(0,12)"><foreignObject width="164.734375" height="24"><div xmlns="http://www.w3.org/1999/xhtml" style="display: table-cell; white-space: nowrap; line-height: 1.5; max-width: 199px; text-align: center;"><span class="nodeLabel markdown-node-label" style=""><p>+get_care_notes() : str</p></span></div></foreignObject></g></g><g class="divider" style=""><path d="M-100.4140625 -48 C-42.0925085401067 -48, 16.2290454197866 -48, 100.4140625 -48 M-100.4140625 -48 C-31.796239859225068 -48, 36.821582781549864 -48, 100.4140625 -48" stroke="#9370DB" stroke-width="1.3" fill="none" stroke-dasharray="0 0" style=""/></g><g class="divider" style=""><path d="M-100.4140625 24 C-34.968631142204785 24, 30.47680021559043 24, 100.4140625 24 M-100.4140625 24 C-56.88530626197653 24, -13.356550023953062 24, 100.4140625 24" stroke="#9370DB" stroke-width="1.3" fill="none" stroke-dasharray="0 0" style=""/></g></g><g class="node default" id="classId-Task-2" transform="translate(232.154296875, 822)"><g class="basic label-container"><path d="M-126.33984375 -156 L126.33984375 -156 L126.33984375 156 L-126.33984375 156" stroke="none" stroke-width="0" fill="#ECECFF" style=""/><path d="M-126.33984375 -156 C-48.04761835825519 -156, 30.244607033489615 -156, 126.33984375 -156 M-126.33984375 -156 C-66.55406213483204 -156, -6.76828051966406 -156, 126.33984375 -156 M126.33984375 -156 C126.33984375 -74.32476099559722, 126.33984375 7.350478008805567, 126.33984375 156 M126.33984375 -156 C126.33984375 -92.83268881720508, 126.33984375 -29.665377634410163, 126.33984375 156 M126.33984375 156 C60.586550628153574 156, -5.166742493692851 156, -126.33984375 156 M126.33984375 156 C33.09897667429318 156, -60.14189040141363 156, -126.33984375 156 M-126.33984375 156 C-126.33984375 58.71857666633545, -126.33984375 -38.5628466673291, -126.33984375 -156 M-126.33984375 156 C-126.33984375 90.48859535879213, -126.33984375 24.97719071758425, -126.33984375 -156" stroke="#9370DB" stroke-width="1.3" fill="none" stroke-dasharray="0 0" style=""/></g><g class="annotation-group text" transform="translate(0, -132)"/><g class="label-group text" transform="translate(-16.1015625, -132)"><g class="label" style="font-weight: bolder" transform="translate(0,-12)"><foreignObject width="32.203125" height="24"><div xmlns="http://www.w3.org/1999/xhtml" style="display: table-cell; white-space: nowrap; line-height: 1.5; max-width: 80px; text-align: center;"><span class="nodeLabel markdown-node-label" style=""><p>Task</p></span></div></foreignObject></g></g><g class="members-group text" transform="translate(-114.33984375, -84)"><g class="label" style="" transform="translate(0,-12)"><foreignObject width="51.609375" height="24"><div xmlns="http://www.w3.org/1999/xhtml" style="display: table-cell; white-space: nowrap; line-height: 1.5; max-width: 100px; text-align: center;"><span class="nodeLabel markdown-node-label" style=""><p>+id: str</p></span></div></foreignObject></g><g class="label" style="" transform="translate(0,12)"><foreignObject width="77.28125" height="24"><div xmlns="http://www.w3.org/1999/xhtml" style="display: table-cell; white-space: nowrap; line-height: 1.5; max-width: 123px; text-align: center;"><span class="nodeLabel markdown-node-label" style=""><p>+name: str</p></span></div></foreignObject></g><g class="label" style="" transform="translate(0,36)"><foreignObject width="107.6875" height="24"><div xmlns="http://www.w3.org/1999/xhtml" style="display: table-cell; white-space: nowrap; line-height: 1.5; max-width: 149px; text-align: center;"><span class="nodeLabel markdown-node-label" style=""><p>+task_type: str</p></span></div></foreignObject></g><g class="label" style="" transform="translate(0,60)"><foreignObject width="164.515625" height="24"><div xmlns="http://www.w3.org/1999/xhtml" style="display: table-cell; white-space: nowrap; line-height: 1.5; max-width: 201px; text-align: center;"><span class="nodeLabel markdown-node-label" style=""><p>+duration_minutes: int</p></span></div></foreignObject></g><g class="label" style="" transform="translate(0,84)"><foreignObject width="92.03125" height="24"><div xmlns="http://www.w3.org/1999/xhtml" style="display: table-cell; white-space: nowrap; line-height: 1.5; max-width: 137px; text-align: center;"><span class="nodeLabel markdown-node-label" style=""><p>+priority: int</p></span></div></foreignObject></g><g class="label" style="" transform="translate(0,108)"><foreignObject width="161.890625" height="24"><div xmlns="http://www.w3.org/1999/xhtml" style="display: table-cell; white-space: nowrap; line-height: 1.5; max-width: 195px; text-align: center;"><span class="nodeLabel markdown-node-label" style=""><p>+preferred_time: time</p></span></div></foreignObject></g><g class="label" style="" transform="translate(0,132)"><foreignObject width="83.984375" height="24"><div xmlns="http://www.w3.org/1999/xhtml" style="display: table-cell; white-space: nowrap; line-height: 1.5; max-width: 128px; text-align: center;"><span class="nodeLabel markdown-node-label" style=""><p>+pet_id: str</p></span></div></foreignObject></g></g><g class="methods-group text" transform="translate(-114.33984375, 108)"><g class="label" style="" transform="translate(0,-12)"><foreignObject width="212.578125" height="24"><div xmlns="http://www.w3.org/1999/xhtml" style="display: table-cell; white-space: nowrap; line-height: 1.5; max-width: 243px; text-align: center;"><span class="nodeLabel markdown-node-label" style=""><p>+get_duration_minutes() : int</p></span></div></foreignObject></g><g class="label" style="" transform="translate(0,12)"><foreignObject width="114.46875" height="24"><div xmlns="http://www.w3.org/1999/xhtml" style="display: table-cell; white-space: nowrap; line-height: 1.5; max-width: 155px; text-align: center;"><span class="nodeLabel markdown-node-label" style=""><p>+to_dict() : dict</p></span></div></foreignObject></g></g><g class="divider" style=""><path d="M-126.33984375 -108 C-40.55942715105775 -108, 45.220989447884506 -108, 126.33984375 -108 M-126.33984375 -108 C-61.52446714851975 -108, 3.2909094529605056 -108, 126.33984375 -108" stroke="#9370DB" stroke-width="1.3" fill="none" stroke-dasharray="0 0" style=""/></g><g class="divider" style=""><path d="M-126.33984375 84 C-69.8749067006047 84, -13.40996965120938 84, 126.33984375 84 M-126.33984375 84 C-69.85008200236351 84, -13.360320254727029 84, 126.33984375 84" stroke="#9370DB" stroke-width="1.3" fill="none" stroke-dasharray="0 0" style=""/></g></g><g class="node default" id="classId-Scheduler-3" transform="translate(354.625, 107)"><g class="basic label-container"><path d="M-194.12890625 -99 L194.12890625 -99 L194.12890625 99 L-194.12890625 99" stroke="none" stroke-width="0" fill="#ECECFF" style=""/><path d="M-194.12890625 -99 C-58.18934559992442 -99, 77.75021505015116 -99, 194.12890625 -99 M-194.12890625 -99 C-91.30741772633719 -99, 11.514070797325616 -99, 194.12890625 -99 M194.12890625 -99 C194.12890625 -23.950257637584002, 194.12890625 51.099484724831996, 194.12890625 99 M194.12890625 -99 C194.12890625 -58.49687594102144, 194.12890625 -17.993751882042886, 194.12890625 99 M194.12890625 99 C58.34783900118984 99, -77.43322824762032 99, -194.12890625 99 M194.12890625 99 C59.71639473843638 99, -74.69611677312724 99, -194.12890625 99 M-194.12890625 99 C-194.12890625 26.14708882090362, -194.12890625 -46.70582235819276, -194.12890625 -99 M-194.12890625 99 C-194.12890625 45.3330263624299, -194.12890625 -8.333947275140204, -194.12890625 -99" stroke="#9370DB" stroke-width="1.3" fill="none" stroke-dasharray="0 0" style=""/></g><g class="annotation-group text" transform="translate(0, -75)"/><g class="label-group text" transform="translate(-37.2734375, -75)"><g class="label" style="font-weight: bolder" transform="translate(0,-12)"><foreignObject width="74.546875" height="24"><div xmlns="http://www.w3.org/1999/xhtml" style="display: table-cell; white-space: nowrap; line-height: 1.5; max-width: 114px; text-align: center;"><span class="nodeLabel markdown-node-label" style=""><p>Scheduler</p></span></div></foreignObject></g></g><g class="members-group text" transform="translate(-182.12890625, -27)"/><g class="methods-group text" transform="translate(-182.12890625, 3)"><g class="label" style="" transform="translate(0,-12)"><foreignObject width="326.984375" height="24"><div xmlns="http://www.w3.org/1999/xhtml" style="display: table-cell; white-space: nowrap; line-height: 1.5; max-width: 337px; text-align: center;"><span class="nodeLabel markdown-node-label" style=""><p>+generate_plan(tasks, owner, date, pet) : list</p></span></div></foreignObject></g><g class="label" style="" transform="translate(0,12)"><foreignObject width="213.921875" height="24"><div xmlns="http://www.w3.org/1999/xhtml" style="display: table-cell; white-space: nowrap; line-height: 1.5; max-width: 246px; text-align: center;"><span class="nodeLabel markdown-node-label" style=""><p>-_sort_by_priority(tasks) : list</p></span></div></foreignObject></g><g class="label" style="" transform="translate(0,36)"><foreignObject width="303.90625" height="24"><div xmlns="http://www.w3.org/1999/xhtml" style="display: table-cell; white-space: nowrap; line-height: 1.5; max-width: 322px; text-align: center;"><span class="nodeLabel markdown-node-label" style=""><p>-_fit_into_windows(tasks, start, end) : list</p></span></div></foreignObject></g><g class="label" style="" transform="translate(0,60)"><foreignObject width="265.625" height="24"><div xmlns="http://www.w3.org/1999/xhtml" style="display: table-cell; white-space: nowrap; line-height: 1.5; max-width: 292px; text-align: center;"><span class="nodeLabel markdown-node-label" style=""><p>+explain_plan(scheduled_items) : str</p></span></div></foreignObject></g></g><g class="divider" style=""><path d="M-194.12890625 -51 C-108.17505297849772 -51, -22.221199706995435 -51, 194.12890625 -51 M-194.12890625 -51 C-83.26458976552324 -51, 27.59972671895352 -51, 194.12890625 -51" stroke="#9370DB" stroke-width="1.3" fill="none" stroke-dasharray="0 0" style=""/></g><g class="divider" style=""><path d="M-194.12890625 -27 C-95.15878917454121 -27, 3.8113279009175756 -27, 194.12890625 -27 M-194.12890625 -27 C-48.344469148539105 -27, 97.43996795292179 -27, 194.12890625 -27" stroke="#9370DB" stroke-width="1.3" fill="none" stroke-dasharray="0 0" style=""/></g></g></g></g></g></svg>